<svg width="40" height="50" viewBox="0 0 40 50" fill="none" xmlns="http://www.w3.org/2000/svg">
<path d="M32.902 44.7361H6.58095C5.85448 44.7361 5.26489 44.1466 5.26489 43.4203C5.26489 42.694 5.85448 42.1045 6.58095 42.1045H32.902C33.6285 42.1045 34.2181 42.694 34.2181 43.4203C34.2181 44.1466 33.6285 44.7361 32.902 44.7361Z" fill="#001730"/>
<path d="M38.1655 5.26316C37.4391 5.26316 36.8495 5.85263 36.8495 6.57895V46.0526C36.8495 46.7789 36.2599 47.3684 35.5334 47.3684H6.58026C4.40351 47.3684 2.63211 45.5974 2.63211 43.4211C2.63211 41.2447 4.40351 39.4737 6.58026 39.4737H30.2692C32.446 39.4737 34.2174 37.7026 34.2174 35.5263V3.94737C34.2174 1.77105 32.446 0 30.2692 0H3.94816C1.77141 0 0 1.77105 0 3.94737V43.4211C0 47.0474 2.95322 50 6.58026 50H35.5334C37.7102 50 39.4816 48.2289 39.4816 46.0526V6.57895C39.4816 5.85263 38.892 5.26316 38.1655 5.26316ZM3.94816 2.63158H30.2692C30.9957 2.63158 31.5853 3.22105 31.5853 3.94737V35.5263C31.5853 36.2526 30.9957 36.8421 30.2692 36.8421H6.58026C5.10102 36.8421 3.73233 37.3342 2.63211 38.1605V3.94737C2.63211 3.22105 3.2217 2.63158 3.94816 2.63158Z" fill="#001730"/>
</svg>
