<svg width="71" height="68" viewBox="0 0 71 68" fill="none" xmlns="http://www.w3.org/2000/svg">
<path d="M41.7726 62.0103C40.3872 63.3954 38.4317 64.1001 36.2142 64.0029C31.2917 63.7815 27.1085 59.5992 26.8882 54.6798L23.9893 15.1319C23.7251 9.14948 28.3862 5.05059 35.0738 5.34476C38.0712 5.47735 41.1312 6.92948 43.4726 9.3306C45.7888 11.7067 47.1939 14.7922 47.3269 17.7976L49.5583 47.7271C49.6233 48.5631 48.9974 49.23 48.1632 49.2189C47.3293 49.2062 46.6032 48.52 46.5413 47.6842L44.3064 17.7092C44.2058 15.4388 43.1463 13.1347 41.3987 11.3416C39.65 9.5474 37.393 8.46405 35.208 8.36667C31.104 8.1845 26.7891 10.2545 27.0104 15.2218L29.9098 54.7693C30.0571 58.0677 32.8251 60.8341 36.0803 60.9795C37.6054 61.0461 38.8586 60.5683 39.7196 59.586C40.5709 58.6135 40.9983 57.166 40.9244 55.5115L38.5788 24.0056C38.5298 22.8997 38.1762 20.4223 35.9133 20.3216C34.6321 20.265 34.2434 20.736 34.1148 20.8902C33.7498 21.3331 33.5826 22.1094 33.6287 23.1347L35.3845 46.8389C35.4463 47.6757 34.821 48.3443 33.9881 48.3296C33.1549 48.3185 32.4287 47.6302 32.3675 46.796L30.6077 23.0479C30.5249 21.2364 30.8954 19.8392 31.7071 18.8516C32.3413 18.0817 33.5488 17.2008 35.7792 17.3006C39.0878 17.4472 41.4253 20.1774 41.5995 24.0949L43.9439 55.5997C44.0539 58.0378 43.3882 60.1834 42.0724 61.6882C41.9765 61.7996 41.8762 61.9066 41.7726 62.0103L41.7726 62.0103Z" fill="#001730"/>
</svg>
