<svg width="86" height="78" viewBox="0 0 86 78" fill="none" xmlns="http://www.w3.org/2000/svg">
<path d="M76.8555 16.6269H70.3438V2.55507C70.3438 1.89647 70.0968 1.26484 69.6573 0.799137C69.2177 0.333436 68.6216 0.0718079 68 0.0718079H18C17.3784 0.0718079 16.7823 0.333436 16.3427 0.799137C15.9032 1.26484 15.6563 1.89647 15.6562 2.55507V16.6269H9.14453C4.12109 16.6269 0.03125 20.7118 0.03125 25.7321V58.8423C0.03125 59.5009 0.27818 60.1325 0.717718 60.5982C1.15726 61.0639 1.7534 61.3255 2.375 61.3255H15.6562V75.3973C15.6563 76.0559 15.9032 76.6876 16.3427 77.1533C16.7823 77.619 17.3784 77.8806 18 77.8806H68C68.6216 77.8806 69.2177 77.619 69.6573 77.1533C70.0968 76.6876 70.3438 76.0559 70.3438 75.3973V61.3255H83.625C84.2466 61.3255 84.8427 61.0639 85.2823 60.5982C85.7218 60.1325 85.9688 59.5009 85.9688 58.8423V25.7321C85.9688 20.7118 81.8789 16.6269 76.8555 16.6269ZM20.3438 5.03833H65.6562V16.6269H20.3438V5.03833ZM65.6562 72.9141H20.3438V51.3925H65.6562V72.9141ZM81.2812 56.359H70.3438V48.9092C70.3438 48.2506 70.0968 47.619 69.6573 47.1533C69.2177 46.6876 68.6216 46.426 68 46.426H18C17.3784 46.426 16.7823 46.6876 16.3427 47.1533C15.9032 47.619 15.6563 48.2506 15.6562 48.9092V56.359H4.71875V25.7321C4.71875 23.4517 6.70313 21.5934 9.14453 21.5934H76.8555C79.2969 21.5934 81.2812 23.4517 81.2812 25.7321V56.359ZM70.3438 34.0097C70.3438 34.8282 70.1147 35.6284 69.6854 36.3091C69.2562 36.9897 68.6461 37.5201 67.9324 37.8334C67.2186 38.1467 66.4332 38.2286 65.6754 38.0689C64.9177 37.9092 64.2217 37.515 63.6754 36.9362C63.1291 36.3574 62.757 35.62 62.6063 34.8171C62.4556 34.0143 62.5329 33.1821 62.8286 32.4258C63.1242 31.6696 63.6249 31.0232 64.2673 30.5684C64.9097 30.1136 65.6649 29.8709 66.4375 29.8709C67.4735 29.8709 68.4671 30.307 69.1996 31.0831C69.9322 31.8593 70.3438 32.912 70.3438 34.0097Z" fill="black"/>
</svg>
