<svg width="50" height="61" viewBox="0 0 50 61" fill="none" xmlns="http://www.w3.org/2000/svg">
<path d="M15.0301 16.9113C18.4575 16.9113 21.236 13.5733 21.236 9.45567C21.236 5.33802 18.4575 2 15.0301 2C11.6027 2 8.82422 5.33802 8.82422 9.45567C8.82422 13.5733 11.6027 16.9113 15.0301 16.9113Z" stroke="#001730" stroke-width="3"/>
<path d="M15.0301 58.5246C18.4575 58.5246 21.236 55.1866 21.236 51.0689C21.236 46.9513 18.4575 43.6133 15.0301 43.6133C11.6027 43.6133 8.82422 46.9513 8.82422 51.0689C8.82422 55.1866 11.6027 58.5246 15.0301 58.5246Z" stroke="#001730" stroke-width="3"/>
<path d="M35.7378 37.718C39.2302 37.718 42.0614 34.38 42.0614 30.2623C42.0614 26.1447 39.2302 22.8066 35.7378 22.8066C32.2454 22.8066 29.4143 26.1447 29.4143 30.2623C29.4143 34.38 32.2454 37.718 35.7378 37.718Z" stroke="#001730" stroke-width="3"/>
<path d="M0 7.54834H8.82353V11.0161H0V7.54834Z" fill="#001730"/>
<path d="M26.4707 7.54834H50.0001V11.0161H26.4707V7.54834Z" fill="#001730"/>
<path d="M0 28.355H23.5294V31.8227H0V28.355Z" fill="#001730"/>
<path d="M41.1743 28.355H49.9978V31.8227H41.1743V28.355Z" fill="#001730"/>
<path d="M0 49.1616H8.82353V52.6294H0V49.1616Z" fill="#001730"/>
<path d="M26.4707 49.1616H50.0001V52.6294H26.4707V49.1616Z" fill="#001730"/>
</svg>
